<?xml version="1.0" encoding="UTF-8"?>
<svg xmlns="http://www.w3.org/2000/svg" xmlns:xlink="http://www.w3.org/1999/xlink" version="1.1" viewBox="0 0 652 652">
  <!-- Generator: Adobe Illustrator 29.5.1, SVG Export Plug-In . SVG Version: 2.1.0 Build 141)  -->
  <defs>
    <style>
      .st0 {
        fill: #76ae99;
      }

      .st1 {
        fill: url(#radial-gradient);
      }

      .st2 {
        fill: #ede7dd;
      }

      .st3 {
        fill: #d3cab7;
      }

      .st4 {
        fill: #b95915;
      }

      .st5 {
        fill: #fff;
      }

      .st6 {
        fill: url(#radial-gradient1);
      }

      .st7 {
        fill: #8a1f03;
      }

      .st8 {
        fill: #4b3900;
      }
    </style>
    <radialGradient id="radial-gradient" cx="325.5" cy="3173.81" fx="325.5" fy="3173.81" r="132.7" gradientTransform="translate(0 -2848.11)" gradientUnits="userSpaceOnUse">
      <stop offset="0" stop-color="#fff"/>
      <stop offset=".51" stop-color="#fcfbfa"/>
      <stop offset=".7" stop-color="#f5f3ed"/>
      <stop offset=".83" stop-color="#ebe7dd"/>
      <stop offset=".94" stop-color="#ded7c7"/>
      <stop offset="1" stop-color="#d3cab7"/>
    </radialGradient>
    <radialGradient id="radial-gradient1" cx="325.54" cy="3173.9" fx="325.54" fy="3173.9" r="98.95" gradientTransform="translate(0 -2848.11)" gradientUnits="userSpaceOnUse">
      <stop offset="0" stop-color="#64511c"/>
      <stop offset=".26" stop-color="#58460b"/>
      <stop offset=".61" stop-color="#4f3c00"/>
      <stop offset="1" stop-color="#4b3900"/>
    </radialGradient>
  </defs>
  <g id="layer">
    <polygon class="st3" points="375 76.8 414.7 102.1 460.9 111.3 488.8 149.2 528.5 174.5 540.9 219.9 568.8 257.8 563.9 304.6 576.2 350.1 555.2 387.1 549.3 443.7 514.6 470.1 493.2 512 449.1 528.5 413.9 559.8 366.8 559.2 322.7 575.7 279 558.2 231.9 557.6 197.5 525.5 153.8 507.9 133.3 465.5 98.9 433.4 95.1 386.5 74.7 344.1 88.1 298.9 84.3 252 113.1 214.8 126.6 169.6 166.9 145.3 195.7 108.1 242.1 100 282.4 75.7 328.6 84.9 375 76.8"/>
    <polygon class="st2" points="325.4 76 369.3 93 416.4 93 451.2 124.7 495.1 141.7 516.1 183.9 550.9 215.6 555.3 262.5 576.2 304.6 562.9 345 568.2 401.7 539.3 434.4 526.4 479.6 486.4 504.4 458 542 411.7 550.7 371.7 575.4 325.4 566.8 279.2 575.4 239.1 550.7 192.8 542 164.5 504.4 124.4 479.6 111.5 434.4 83.2 396.8 87.5 349.9 74.6 304.6 95.6 262.5 100 215.6 134.8 183.9 155.7 141.7 199.7 124.7 234.4 93 281.5 93 325.4 76"/>
    <path class="st5" d="M564.3,325.7c0,131.9-107,238.9-238.9,238.9s-238.9-107-238.9-238.9,107-238.9,238.9-238.9c132,0,238.9,107,238.9,238.9Z"/>
    <path class="st8" d="M91.4,325.7c0-129.3,104.8-234,234-234h0c129.3,0,234,104.8,234.1,234h0c0,129.3-104.8,234-234.1,234h0c-129.2.1-234-104.7-234-234h0ZM162.5,162.7c-41.7,41.7-67.5,99.3-67.5,163h0c0,63.6,25.8,121.3,67.5,163h0c41.7,41.7,99.3,67.5,163,67.5h0c63.7,0,121.3-25.8,163-67.5h0c41.7-41.7,67.5-99.3,67.5-163h0c0-63.7-25.8-121.3-67.5-163h0c-41.7-41.7-99.3-67.5-163-67.5h0c-63.7,0-121.3,25.8-163,67.5h0Z"/>
    <path class="st1" d="M458.2,325.7c0,73.3-59.4,132.7-132.7,132.7s-132.7-59.4-132.7-132.7,59.4-132.7,132.7-132.7c73.2,0,132.7,59.4,132.7,132.7Z"/>
    <g>
      <path class="st0" d="M453.1,382.6c-21.8,48.8-70.7,82.8-127.6,82.8s-105.8-34-127.6-82.8h-91c25.2,97.2,113.6,169,218.7,169s193.4-71.8,218.7-169h-91.2Z"/>
      <path class="st8" d="M185.9,317.8c4.1-73.5,65-131.8,139.5-131.8s135.4,58.3,139.5,131.8h86.3c-4.2-121.1-103.7-218-225.8-218s-221.6,96.9-225.8,218h86.3Z"/>
      <path class="st4" d="M551.3,325.3h-86.2v.4c0,17.3-3.2,33.9-8.9,49.2h89.7c3.5-15.8,5.4-32.3,5.4-49.2v-.4ZM185.7,325.3h-86.2v.4c0,16.9,1.9,33.4,5.4,49.2h89.7c-5.8-15.3-8.9-31.9-8.9-49.2,0-.1,0-.3,0-.4Z"/>
    </g>
    <path class="st6" d="M437.1,355.1c-.4.5-1.7,2.3-2.2,1.6-1.3-2.1-2.8-5.1-4.7-8.6-4-7.6-11.4-21.1-22.6-31.2-13.1-11.9-27.3-20.3-49.5-29.8-23.6-10.1-52.4-14.3-70.4-15.2-7.8-.4-9.5,1,1.8,2.8,44.4,7.1,64.6,16.6,83.5,27.6,39.2,22.9,54.4,59.3,55.1,75,.6,13.8-7.5,21.2-17.3,25.4-10,4.3-21.1,4.9-24.4,5.1-32,1.5-70.7-12-105.6-32.6-38.3-22.6-67.5-51.4-68.7-75.5-.5-10.6,3.1-21,11.7-30.9,10.9-12.6,29.4-23.5,60.4-24.9,12.5-.6,29.9-.3,53.3,4.7,21.5,4.5,44.1,13,64.9,31.9,24.8,22.5,35.9,49.2,36.6,63.9.2,4.9-.5,7.9-1.2,9.6"/>
    <g>
      <path class="st5" d="M167.7,462.1c2.5,1.7,4.9,1.3,6.8-.8l23.5-26.7c2.5-2.8,3-3.4.2-7.4l1.7-1.9,3.8,3.3c8.5,7.5,11,9.3,11,9.3l.1.5s-4.3,1-8.5,5.8l-8.6,9.7,16.6,14.6,1.4-.1,9.1-10.3c2.5-2.8,3-3.4-.1-7.6l1.7-1.9,4.1,3.6c8.5,7.5,11,9.2,11,9.2l.1.5s-4.3,1-8.6,5.9l-22.4,25.4c-1.5,1.7-3.1,2.9-3.1,2.9l4,4.5-2.1,1.9-17.4-14.7,2.1-2.3c2.5,1.7,5.2,1.7,6.9-.3l10.7-12.2-16.5-14.6h-1.5l-9.9,11.2c-1.5,1.7-3.1,2.9-3.1,2.9l4.3,4.7-2.1,1.9-17.4-14.7,2.2-2.3Z"/>
      <path class="st5" d="M279,475.4c19.1,6.1,22.2,21,18.6,32.2-4,12.6-18.1,24.3-37.6,18.1-18.3-5.8-22.2-21.1-18.4-33.1,4.1-12.8,17.8-23.4,37.4-17.2ZM263.4,522.2c9.4,3,16.9-5.7,20.4-16.7,3.4-10.7,2.4-23.2-7.9-26.5-9.9-3.2-17.3,5.2-20.6,15.4-3.6,11.3-1.8,24.6,8.1,27.8Z"/>
      <path class="st5" d="M317.3,492.9c-.3-3.7-.4-4.5-5.2-5.2l-.2-2.6,5-.4c11.4-1,14.3-1.5,14.3-1.5l.4.3s-2.3,3.4-1.7,10.2l2,23c.9,10.1,8.2,13.9,14.9,13.3,6.7-.6,12.6-6,11.8-15l-2.1-24.9c-.3-3.4-.5-5.2-6.1-5.3l-.2-2.8,16.2-1.4.5,1.7s-5.4,2.6-4.8,9l2,23.1c1.1,12.9-7.6,20.1-19.8,21.1-10.6.9-23.6-3-24.8-17l-2.2-25.6Z"/>
      <path class="st5" d="M392.3,507.3l3-1.4c4.4,9.6,11.6,9,15.7,7.1,3.4-1.6,6.1-5,4.4-8.7-4.7-10.3-26.2.2-33.3-15.3-3.6-7.9-.7-16.6,10.6-21.8,3.7-1.7,8.4-3.2,13.8-4.7l3.2,13.2-3,1.4c-2.6-5.4-6.2-8.6-12.5-5.7-4.7,2.2-6,5.8-4.6,8.7,4.8,10.4,25.8-.9,33.2,15.1,4.4,9.4-.9,17.6-10.2,21.9-6.5,3-16,5-18.7,0-.3-.6-.9-2.6-1.6-9.8Z"/>
      <path class="st5" d="M451.9,490.2c1.9-2.3,2-4.6.1-6.6l-24.5-26.2c-2.5-2.7-3.4-3-7.8-.5l-1.7-1.9,25.2-23.5c2.3-2.2,4.3-4.5,4.3-4.5l7.9,12-2.4,2.2c-5.2-6.1-7.9-5.3-12.4-1l-5.6,5.2-.1,1.5,11.8,12.7,8.9-8.3-2.6-3.7,2.2-2.7,10.6,11.4-3.1,2.9-4-4.3-8,7.5-.1,1.5,9.6,10.3c1.6,1.7,2.7,3.4,2.7,3.4l7.3-6.8c4.9-4.6,5.1-5.7,2.4-14.3l2.4-2.2,7.1,11.8-17.9,16.7c-4.3,4-10.2,9.8-10.2,9.8l-2.1-2.4Z"/>
    </g>
    <path class="st5" d="M485.5,438.4c.1.3.2.6.4.7.2.2.4.2.7.2.2,0,.4-.1.5-.3.1-.1.1-.3.1-.5s-.1-.3-.2-.4-.3-.1-.4-.1c-.2,0-.3.1-.4.2s-.1.2-.1.4c-.2-.3-.2-.6,0-.9l1.4-2.1c.1-.1.1-.2-.1-.3l-4.6-3.1c.9-2.1,2.1-4.2,3.5-6.4,5.2-7.7,12-12.4,15.8-11.2-.2-.3-.5-.6-.8-.8-3.6-2.5-11.2,2.4-16.9,10.8-1.5,2.2-2.6,4.3-3.5,6.4l-.5-.3c-.2-.1-.4-.3-.7-.5-.3-.2-.5-.4-.7-.7-.2-.2-.3-.5-.4-.8s0-.6.2-.9l-.2-.2c-.2.3-.4.5-.7.6-.2.1-.5.1-.8,0s-.5-.2-.8-.4c-.3-.2-.6-.4-.9-.5l-.5-.4c1.6-1.6,3.2-3.5,4.6-5.6,5.7-8.4,7.4-17.2,3.8-19.7-.3-.2-.7-.4-1-.5,2.5,3.2.6,11.2-4.6,18.9-1.5,2.1-3,4-4.6,5.6l-4.6-3.1c-.1-.1-.2-.1-.3.1l-1.4,2.1c-.2.3-.5.4-.7.4l.3-.3c.1-.1.1-.3.1-.4,0-.2-.1-.3-.3-.4-.1-.1-.3-.1-.4-.1-.2,0-.3.1-.4.3-.1.2-.2.4-.1.6s.2.4.4.5c.2.2.5.2.8.1s.5-.3.7-.5l.6-.9,6.8,4.6c.2.1.4.3.7.5.3.2.6.3.9.4s.6.2.8.1c.3,0,.5-.1.7-.3-.1.3-.2.5-.1.8s.2.5.4.7c.2.2.4.4.7.6.3.2.5.4.7.5l6.7,4.5-.6.9c0,.5-.1.8,0,1.1ZM498,399.8c.7.5,1.7.3,2.2-.4.5-.7.3-1.7-.4-2.2-.7-.5-1.7-.3-2.2.4-.5.7-.3,1.7.4,2.2ZM479.9,410.3c-.3-1.8-1-2.4-2.5-3.1.7,1.4.9,1.8,1,2.7.4,2.3.1,3.7-1,6.7,2-2.6,2.9-4.1,2.5-6.3ZM501,395.5c.6.4,1.4.2,1.8-.3.4-.6.2-1.4-.3-1.8-.6-.4-1.4-.2-1.7.3-.5.6-.4,1.4.2,1.8ZM490.4,411.4l4.4-6.5c.9.4,1.9.2,2.5-.6.6-.9.4-2.1-.5-2.7s-2.1-.4-2.7.5c-.5.8-.4,1.8.2,2.4l-4.4,6.5c.2-.9.2-1.9-.1-3.3-.3-1.6-.7-2.3-1.8-2.1-.3.1-.5.3-.9.7,1,1,1.6,1.5,1.7,3.1.2,3.4-3.3,8.7-3.3,8.7,4.4-5.6,5.4-6,6.8-6.3,1.5-.3,2.2-.1,3.5.4.3-.5.4-.8.3-1.1-.2-1.1-1-1.2-2.6-.9-1.4.3-2.3.7-3.1,1.2ZM494.7,421.2c-2.4.4-3.7,1.7-5.6,4.6,2.3-1.9,4.4-3.1,6.6-3.5.5-.1,1.3-.1,2.4,0-1.1-1-1.8-1.4-3.4-1.1Z"/>
    <path class="st5" d="M165.8,437.5l-.6-.9,6.6-4.5c.2-.1.4-.3.7-.5s.5-.4.7-.6.4-.5.4-.7c.1-.3.1-.5-.1-.8.2.2.4.3.7.3s.5,0,.8-.1.6-.2.9-.4c.3-.2.5-.3.7-.5l6.8-4.6.6.9c.2.3.4.4.7.5s.6,0,.8-.1c.2-.2.4-.3.4-.5.1-.2,0-.4-.1-.6-.1-.1-.2-.2-.4-.3-.2,0-.3,0-.4.1-.1.1-.2.2-.3.4,0,.2,0,.3.1.4s.2.2.3.3c-.3,0-.5-.1-.7-.4l-1.4-2.1c-.1-.1-.2-.1-.3-.1l-4.6,3.1c-1.6-1.6-3.2-3.5-4.6-5.6-5.2-7.7-7.1-15.7-4.6-18.9-.4.1-.7.2-1,.5-3.6,2.4-1.9,11.3,3.8,19.7,1.5,2.2,3,4,4.6,5.6l-.5.4c-.3.2-.6.4-.9.5-.3.2-.6.3-.8.4-.3.1-.5.1-.8,0-.2-.1-.5-.3-.7-.6l-.2.2c.2.3.3.6.2.9s-.2.5-.4.8c-.2.2-.4.5-.7.7s-.5.4-.7.5l-.5.3c-.9-2.1-2.1-4.2-3.5-6.4-5.7-8.4-13.3-13.2-16.9-10.8-.3.2-.6.5-.8.8,3.9-1.1,10.6,3.6,15.8,11.2,1.5,2.1,2.6,4.3,3.5,6.4l-4.6,3.1c-.1.1-.2.2-.1.3l1.4,2.1c.2.3.2.6,0,.9,0-.1-.1-.3-.1-.4-.1-.1-.2-.2-.4-.2s-.3,0-.4.1c-.1.1-.2.2-.2.4s0,.3.1.5.3.3.5.3.4,0,.7-.2c.2-.2.4-.4.4-.7.3-.5.3-.8.1-1.1ZM153.8,397.6c-.5-.7-1.5-.9-2.2-.4s-.9,1.5-.4,2.2,1.5.9,2.2.4c.7-.5.9-1.5.4-2.2ZM174,416.6c-1.1-3-1.4-4.4-1-6.7.2-.9.3-1.4,1-2.7-1.5.8-2.2,1.3-2.5,3.1-.3,2.2.5,3.7,2.5,6.3ZM150.8,393.7c-.4-.6-1.2-.7-1.7-.3-.6.4-.7,1.2-.3,1.8.4.6,1.2.7,1.8.3.4-.4.6-1.2.2-1.8ZM157.9,410.2c-1.6-.3-2.4-.2-2.6.9-.1.3.1.6.3,1.1,1.3-.5,2-.7,3.5-.4,1.4.3,2.4.7,6.8,6.3,0,0-3.5-5.3-3.3-8.7.1-1.5.7-2.1,1.7-3.1-.4-.5-.6-.7-.9-.7-1.1-.2-1.5.5-1.8,2.1-.3,1.4-.3,2.4-.1,3.3l-4.4-6.5c.6-.7.8-1.7.2-2.4-.6-.9-1.8-1.1-2.7-.5s-1.1,1.8-.5,2.7c.6.8,1.6,1.1,2.5.6l4.4,6.5c-.7-.5-1.7-.9-3.1-1.2ZM153.3,422.2c1.2,0,1.9-.1,2.4,0,2.3.4,4.3,1.6,6.6,3.5-1.9-2.8-3.2-4.2-5.6-4.6-1.6-.2-2.3.2-3.4,1.1Z"/>
    <g>
      <path class="st7" d="M114.4,362.6v-25.5h11.7v3.8h-7.3v6.6h5.6v3.8h-5.6v7.5h7.8v3.8h-12.2Z"/>
      <path class="st7" d="M138,343.4c-.2-2.2-1.3-2.8-2.3-2.8-1.4,0-2.2.9-2.2,2.5,0,4.3,8.9,6.4,8.9,13.3,0,4.2-2.8,6.5-6.9,6.5s-6.4-3.2-6.6-7.1l4.2-.6c.2,2.6,1.2,3.8,2.6,3.8,1.5,0,2.5-.8,2.5-2.3,0-5-8.9-6.4-8.9-13.7,0-4.1,2.5-6.4,6.8-6.4,3.6,0,5.7,2.6,6.1,6.2l-4.2.6Z"/>
      <path class="st7" d="M148.3,340.9h-4.3v-3.8h12.8v3.8h-4.2v21.7h-4.4v-21.7h.1Z"/>
      <path class="st7" d="M159.4,337.1h6.5c4.5,0,6.9,2.5,6.9,7.7v10.1c0,5.2-2.4,7.7-6.9,7.7h-6.5v-25.5ZM163.8,359h1.5c2.3,0,3.1-.9,3.1-3.6v-11.1c0-2.7-.8-3.6-3.1-3.6h-1.5v18.3Z"/>
    </g>
    <g>
      <path class="st7" d="M482.4,341.9h-3.4v-2.4c1.9-1,3.7-2,5.2-3.3h2.2v25.8h-4v-20.1h0Z"/>
      <path class="st7" d="M495.6,355.2v1.3c0,1.7.6,2.4,1.9,2.4s2-.8,2-2.4v-6c-1.1,1.1-1.8,1.7-3.6,1.7-2.5,0-4.7-1.5-4.7-5.2v-3c0-5.4,1.8-7.8,6.2-7.8s6.2,2.2,6.2,7v12.2c0,4.8-1.8,7-6.2,7-3.5.1-5.7-2.4-5.7-5.6v-1.6h3.9ZM499.5,342.1c0-1.7-.7-2.4-2-2.4s-2,.8-2,2.4v4.2c0,1.7.7,2.4,1.8,2.4.8,0,1.7-.7,2.3-1.2l-.1-5.4h0Z"/>
      <path class="st7" d="M511.3,355.2v1.3c0,1.7.6,2.4,1.9,2.4s2-.8,2-2.4v-6c-1.1,1.1-1.8,1.7-3.6,1.7-2.5,0-4.7-1.5-4.7-5.2v-3c0-5.4,1.8-7.8,6.2-7.8s6.2,2.2,6.2,7v12.2c0,4.8-1.8,7-6.2,7-3.5.1-5.7-2.4-5.7-5.6v-1.6h3.9ZM515.2,342.1c0-1.7-.7-2.4-2-2.4s-2,.8-2,2.4v4.2c0,1.7.7,2.4,1.8,2.4.8,0,1.7-.7,2.3-1.2l-.1-5.4h0Z"/>
      <path class="st7" d="M530.7,343.4v-1.3c0-1.7-.6-2.4-1.9-2.4s-2,.8-2,2.4v6c1.1-1.1,1.8-1.7,3.6-1.7,2.5,0,4.7,1.5,4.7,5.2v3c0,5.4-1.8,7.8-6.2,7.8s-6.2-2.2-6.2-7v-12.2c0-4.8,1.8-7,6.2-7,3.5-.1,5.7,2.4,5.7,5.6v1.6h-3.9ZM526.7,356.5c0,1.7.7,2.4,2,2.4s2-.8,2-2.4v-4.2c0-1.7-.7-2.4-1.8-2.4-.8,0-1.7.7-2.3,1.2l.1,5.4h0Z"/>
    </g>
  </g>
  <g id="Layer_2">
    <g>
      <path class="st5" d="M128.1,275.13c1.29-6.16,4.33-12.24,5.41-15.77l10.08,4.16-.57,2.75c-6.51-.95-9.92,3.61-11.29,10.17-2.23,10.69,5.54,15.73,13.68,17.43,12.4,2.59,20.22-5.09,22.13-14.2,1.49-7.15-1.91-13.13-1.91-13.13l2.16-.85s8,7.56,5.29,20.54c-3.37,16.13-17.14,20.79-26.84,18.76-9.71-2.03-21.81-12.22-18.13-29.86Z"/>
      <path class="st5" d="M152.62,215.02c8.89-14.83,22.02-14.45,30.69-9.25,9.77,5.85,16.83,20.01,7.74,35.18-8.51,14.19-22.11,14.48-31.42,8.9-9.94-5.96-16.14-19.59-7.01-34.82ZM188.8,237.4c4.37-7.3-1.44-15.31-10.01-20.45-8.33-4.99-19-6.62-23.82,1.43-4.61,7.7.92,15.54,8.9,20.33,8.79,5.27,20.3,6.39,24.92-1.31Z"/>
      <path class="st5" d="M208.55,210.75c1.68-1.94,1.67-4.08.06-5.88l-20.42-22.99c-2.14-2.4-2.83-2.68-6.7-.59l-1.47-1.65,22.54-20.02c2.05-1.82,3.83-3.76,3.83-3.76l6.59,10.55-2.1,1.87c-4.33-5.38-6.7-4.72-10.71-1.16l-5.26,4.67-.12,1.27,10.1,11.37,8.07-7.16-2.22-3.31,1.99-2.3,8.81,9.92-2.76,2.45-3.29-3.71-7.26,6.45-.08,1.32,8.54,9.62c1.33,1.5,2.15,2.93,2.15,2.93l5.91-4.44,1.4,1.98-15.81,14.58-1.78-2Z"/>
      <path class="st5" d="M241.2,183.66c2.13-1.44,2.66-3.51,1.58-5.66l-13.78-27.49c-1.44-2.87-2.04-3.32-6.32-2.3l-.99-1.98,26.95-13.51c2.46-1.23,4.67-2.64,4.67-2.64l3.64,11.89-2.52,1.26c-2.79-6.32-5.25-6.29-10.04-3.88l-6.29,3.15-.45,1.2,6.82,13.6,9.64-4.83-1.29-3.77,2.51-1.71,5.95,11.86-3.29,1.65-2.22-4.43-8.68,4.35-.42,1.26,5.77,11.5c.9,1.8,1.32,3.38,1.32,3.38l6.86-2.76.84,2.28-19.04,10-1.2-2.4Z"/>
      <path class="st5" d="M279.57,165.85c2.43-.82,3.54-2.47,3.08-4.84l-5.97-30.38c-.62-3.16-1.08-3.75-5.48-3.91l-.43-2.17,29.19-5.74c2.7-.53,5.21-1.3,5.21-1.3l.33,12.43-2.76.54c-1-6.84-3.38-7.46-8.64-6.43l-6.51,1.28-.75,1.04,2.88,14.66,10.32-2.03-.22-3.92,2.88-.98,2.58,13.15-3.62.71-.98-5-9.27,1.82-.75,1.04,2.35,11.97c.39,1.97.4,3.75.4,3.75l8.48-1.67c5.65-1.11,6.33-1.86,8.26-9.41l2.76-.54-.18,11.92-20.71,4.07c-4.93.97-11.93,2.55-11.93,2.55l-.52-2.63Z"/>
      <path class="st5" d="M323.85,158.68c2.56-.13,4.08-1.42,4.27-3.82l2.49-30.86c.26-3.21-.02-3.9-4.21-5.25l.18-2.2,29.65,2.39c2.74.22,5.37.16,5.37.16l-3.06,12.06-2.8-.23c.89-6.85-1.23-8.1-6.57-8.53l-6.61-.53-1,.79-1.2,14.89,10.49.85.85-3.83,3.04-.16-1.08,13.36-3.67-.3.41-5.08-9.42-.76-1.01.79-.98,12.16c-.16,2-.64,3.71-.64,3.71l8.62.69c5.74.46,6.59-.07,10.5-6.82l2.8.23-3.41,11.42-21.04-1.7c-5.01-.4-12.17-.78-12.17-.78l.22-2.67Z"/>
      <path class="st5" d="M387.26,169.75c2.41.9,4.31.31,5.44-1.82l14.48-27.36c1.5-2.84,1.52-3.59-1.8-6.49l1.03-1.95,15.75,8.34c11.37,6.02,13.65,12.3,11.18,16.98-3.35,6.34-12.99,5.63-14,5.4,3.68,3.08,9.23,9.06,5.78,15.57-3.26,6.16-12.26,7.69-22.74,2.14l-5.51-2.91c-4.44-2.35-10.87-5.53-10.87-5.53l1.25-2.37ZM403.67,176.69c3.61,1.91,8.67.95,10.68-2.84.85-1.6,5.01-8.04-4.05-12.83l-.53-.28-1.24.33-5.8,10.96c-.94,1.78-2.02,3.1-2.02,3.1l2.96,1.57ZM414.85,158.87c.68.29,4.58.38,7.52-5.19,2.04-3.85,2.36-7.32-2.32-9.79l-1.07-.56-1.24.33-6.93,13.09,4.03,2.13Z"/>
      <path class="st5" d="M427.7,192.98c2.06,1.53,4.05,1.49,5.73-.25l21.49-22.28c2.23-2.31,2.46-3.03.07-6.73l1.54-1.59,21.41,20.65c1.98,1.91,4.04,3.53,4.04,3.53l-10.01,7.38-2.03-1.95c5.03-4.73,4.18-7.04.33-10.76l-4.77-4.6-1.28-.02-10.37,10.75,7.57,7.3,3.08-2.42,2.45,1.8-9.3,9.64-2.65-2.56,3.54-3.66-6.8-6.56-1.28-.02-8.46,8.78c-1.4,1.45-2.85,2.47-2.85,2.47l6.22,6c4.15,4,5.14,4.12,12.44,1.39l2.03,1.95-9.88,6.67-15.19-14.65c-3.62-3.49-8.92-8.32-8.92-8.32l1.86-1.93Z"/>
      <path class="st5" d="M456.73,221.26c1.41,1.89,3.23,2.23,4.87,1.98l41.12-6.02,3.29,3.67-25.66,31.76c-1.39,1.74-3.14,3.53-2.12,5.96l-2.16.94-1.18-2.03c-1.78-3.07-7.68-12.58-7.68-12.58l2.43-1.41c.93,1.47,2.32,2.53,3.69.88l5.16-5.93-6.69-11.54-1.3-.64-9.12,1.49,2.31,5.32-2.44.87-6.65-11.48,2.14-1.24ZM492.14,222.89l-16.38,2.6,5.61,9.68,6.78-7.8c.95-1.17,2.89-3.3,3.99-4.48Z"/>
      <path class="st5" d="M481.15,264.8c.91,2.68,2.63,4.03,4.99,3.53l27.4-5.79c4-.85,5.65-2.08,6.63-6.54l2.16-.46.39,1.84c.65,3.08,2.26,9.38,2.26,9.38,0,0-1.39,1.18-2.84,3.41l-17.55,27.13c-.67,1.03-1.62,2.4-2.43,3.39l21.04-4.45c2.88-.61,4.51-1.02,3.94-6.31l2.36-.5,2.83,13.37-1.37.63s-2-3.96-7.44-2.81l-36.05,7.62-.72-3.41,22.22-33.87c.79-1.13,1.85-2.58,2.67-3.58l-24.58,5.2c-1.97.42-3.61.42-3.61.42l.85,5.98-2.42.24-3.34-13.88,2.62-.55Z"/>
    </g>
  </g>
</svg>