<?xml version="1.0" encoding="utf-8"?>
<!-- Generator: Adobe Illustrator 19.2.1, SVG Export Plug-In . SVG Version: 6.00 Build 0)  -->
<svg version="1.1" id="layer" xmlns="http://www.w3.org/2000/svg" xmlns:xlink="http://www.w3.org/1999/xlink" x="0px" y="0px"
	 viewBox="0 0 652 652" style="enable-background:new 0 0 652 652;" xml:space="preserve">
<style type="text/css">
	.st0{fill:#D3CAB7;}
	.st1{fill:#EDE7DD;}
	.st2{fill:#FFFFFF;}
	.st3{fill:#4B3900;}
	.st4{fill:url(#SVGID_1_);}
	.st5{fill:#76AE99;}
	.st6{fill:#B95915;}
	.st7{fill:url(#SVGID_2_);}
	.st8{fill:#8A1F03;}
</style>
<g id="Layer_1">
	<g>
		<polygon class="st0" points="375,76.8 414.7,102.1 460.9,111.3 488.8,149.2 528.5,174.5 540.9,219.9 568.8,257.8 563.9,304.6 
			576.2,350.1 555.2,387.1 549.3,443.7 514.6,470.1 493.2,512 449.1,528.5 413.9,559.8 366.8,559.2 322.7,575.7 279,558.2 
			231.9,557.6 197.5,525.5 153.8,507.9 133.3,465.5 98.9,433.4 95.1,386.5 74.7,344.1 88.1,298.9 84.3,252 113.1,214.8 126.6,169.6 
			166.9,145.3 195.7,108.1 242.1,100 282.4,75.7 328.6,84.9 		"/>
		<polygon class="st1" points="325.4,76 369.3,93 416.4,93 451.2,124.7 495.1,141.7 516.1,183.9 550.9,215.6 555.3,262.5 
			576.2,304.6 562.9,345 568.2,401.7 539.3,434.4 526.4,479.6 486.4,504.4 458,542 411.7,550.7 371.7,575.4 325.4,566.8 
			279.2,575.4 239.1,550.7 192.8,542 164.5,504.4 124.4,479.6 111.5,434.4 83.2,396.8 87.5,349.9 74.6,304.6 95.6,262.5 100,215.6 
			134.8,183.9 155.7,141.7 199.7,124.7 234.4,93 281.5,93 		"/>
		<path class="st2" d="M564.3,325.7c0,131.9-107,238.9-238.9,238.9c-131.9,0-238.9-107-238.9-238.9c0-131.9,107-238.9,238.9-238.9
			C457.4,86.8,564.3,193.8,564.3,325.7z"/>
		<g>
			<path class="st3" d="M91.4,325.7c0-129.3,104.8-234,234-234l0,0c129.3,0,234,104.8,234.1,234l0,0c0,129.3-104.8,234-234.1,234
				l0,0C196.2,559.8,91.4,455,91.4,325.7L91.4,325.7z M162.5,162.7c-41.7,41.7-67.5,99.3-67.5,163l0,0c0,63.6,25.8,121.3,67.5,163
				l0,0c41.7,41.7,99.3,67.5,163,67.5l0,0c63.7,0,121.3-25.8,163-67.5l0,0c41.7-41.7,67.5-99.3,67.5-163l0,0
				c0-63.7-25.8-121.3-67.5-163l0,0c-41.7-41.7-99.3-67.5-163-67.5l0,0C261.8,95.2,204.2,121,162.5,162.7L162.5,162.7z"/>
		</g>
		
			<radialGradient id="SVGID_1_" cx="325.4345" cy="326.182" r="132.7377" gradientTransform="matrix(1 0 0 -1 0 651.89)" gradientUnits="userSpaceOnUse">
			<stop  offset="0" style="stop-color:#FFFFFF"/>
			<stop  offset="0.5149" style="stop-color:#FCFBFA"/>
			<stop  offset="0.7003" style="stop-color:#F5F3ED"/>
			<stop  offset="0.8325" style="stop-color:#EBE7DD"/>
			<stop  offset="0.9387" style="stop-color:#DED7C7"/>
			<stop  offset="1" style="stop-color:#D3CAB7"/>
		</radialGradient>
		<path class="st4" d="M458.2,325.7c0,73.3-59.4,132.7-132.7,132.7c-73.3,0-132.7-59.4-132.7-132.7c0-73.3,59.4-132.7,132.7-132.7
			C398.7,193,458.2,252.4,458.2,325.7z"/>
		<g>
			<path class="st5" d="M453.1,382.6c-21.8,48.8-70.7,82.8-127.6,82.8c-56.9,0-105.8-34-127.6-82.8h-91
				c25.2,97.2,113.6,169,218.7,169c105.1,0,193.4-71.8,218.7-169H453.1z"/>
			<path class="st3" d="M185.9,317.8c4.1-73.5,65-131.8,139.5-131.8c74.5,0,135.4,58.3,139.5,131.8h86.3
				c-4.2-121.1-103.7-218-225.8-218c-122.1,0-221.6,96.9-225.8,218H185.9z"/>
			<path class="st6" d="M551.3,325.3h-86.2c0,0.1,0,0.3,0,0.4c0,17.3-3.2,33.9-8.9,49.2h89.7c3.5-15.8,5.4-32.3,5.4-49.2
				C551.3,325.6,551.3,325.4,551.3,325.3z M185.7,325.3H99.5c0,0.1,0,0.3,0,0.4c0,16.9,1.9,33.4,5.4,49.2h89.7
				c-5.8-15.3-8.9-31.9-8.9-49.2C185.7,325.6,185.7,325.4,185.7,325.3z"/>
		</g>
		
			<radialGradient id="SVGID_2_" cx="325.4352" cy="326.1834" r="99.0446" gradientTransform="matrix(1 0 0 -1 0 651.89)" gradientUnits="userSpaceOnUse">
			<stop  offset="0" style="stop-color:#64511C"/>
			<stop  offset="0.2624" style="stop-color:#58460B"/>
			<stop  offset="0.6091" style="stop-color:#4F3C00"/>
			<stop  offset="1" style="stop-color:#4B3900"/>
		</radialGradient>
		<path class="st7" d="M437.1,355.1c-0.4,0.5-1.7,2.3-2.2,1.6c-1.3-2.1-2.8-5.1-4.7-8.6c-4-7.6-11.4-21.1-22.6-31.2
			c-13.1-11.9-27.3-20.3-49.5-29.8c-23.6-10.1-52.4-14.3-70.4-15.2c-7.8-0.4-9.5,1,1.8,2.8c44.4,7.1,64.6,16.6,83.5,27.6
			c39.2,22.9,54.4,59.3,55.1,75c0.6,13.8-7.5,21.2-17.3,25.4c-10,4.3-21.1,4.9-24.4,5.1c-32,1.5-70.7-12-105.6-32.6
			c-38.3-22.6-67.5-51.4-68.7-75.5c-0.5-10.6,3.1-21,11.7-30.9c10.9-12.6,29.4-23.5,60.4-24.9c12.5-0.6,29.9-0.3,53.3,4.7
			c21.5,4.5,44.1,13,64.9,31.9c24.8,22.5,35.9,49.2,36.6,63.9c0.2,4.9-0.5,7.9-1.2,9.6"/>
		<g>
			<path class="st2" d="M168,285.1c0.7-2.9-0.2-5-2.8-6L131.8,266c-3.5-1.4-4.3-1.3-7.2,2.9l-2.4-0.9l12.6-32.1c1.2-3,2-5.9,2-5.9
				l12.3,7.4l-1.2,3c-7.3-3.3-9.4-1.3-11.7,4.4l-2.8,7.2l0.5,1.4l16.1,6.3l4.4-11.3l-4-2.2l0.8-3.4l14.5,5.7l-1.6,4l-5.5-2.2
				l-4,10.2l0.5,1.4l13.2,5.2c2.2,0.9,3.9,1.9,3.9,1.9l3.7-9.3c2.4-6.2,2.1-7.3-4-13.9l1.2-3l11.5,7.6l-8.9,22.8
				c-2.1,5.4-4.9,13.2-4.9,13.2L168,285.1z"/>
			<path class="st2" d="M181.8,224.5l2.1-2.5c8.1,6.8,14.3,3.2,17.2-0.2c2.4-2.8,3.4-7.2,0.3-9.8c-8.7-7.3-23.6,11.3-36.6,0.3
				c-6.7-5.6-7.7-14.7,0.3-24.3c2.6-3.1,6.2-6.4,10.5-10.2l8.5,10.6l-2.1,2.5c-4.7-3.7-9.3-5.2-13.8,0.2c-3.4,4-2.9,7.8-0.5,9.8
				c8.8,7.4,23-11.8,36.5-0.4c8,6.7,6.7,16.3,0.1,24.1c-4.6,5.5-12.3,11.4-16.9,8C186.9,232.3,185.5,230.7,181.8,224.5z"/>
			<path class="st2" d="M224.8,198.1c2.2-1.8,2.8-4.2,1.4-6.5L207.6,161c-1.9-3.2-2.7-3.6-7.5-2.1l-1.3-2.2l19.6-12
				c8-4.9,18.9-7.6,24.2,1c5,8.2,1.6,20.5-8.3,25.3l-1.8-2.9c3.3-2.9,3.3-7.2,0.1-12.4c-3.8-6.2-9.4-8.3-13.4-5.9l-1.8,1.1l-0.4,1.4
				l20,32.8c1.2,1.9,1.7,3.6,1.7,3.6l6.7-3.2l1.2,2.5l-20,12.8L224.8,198.1z"/>
			<path class="st2" d="M273.5,171.2c2.8-0.9,4.1-3,3.6-5.6l-6.6-35.2c-0.7-3.7-1.2-4.4-6.3-4.6l-0.5-2.5l23.5-4.4
				c13.3-2.5,19.6,2.6,20.8,8.8c1.1,5.7-3,10.7-6.6,14.4l0.3,1.4l14.3,14.8c3.5,3.6,4.7,3.5,5.6,3.5l0.9-0.1l0.3,3.1l-16.3,3.1
				l-0.4-0.3c0,0-1.2-2.8-5.7-7.5l-10.4-11l-1.9,0.4l-0.9,1.2l2.4,12.6c0.4,2.2,0.3,4,0.3,4l7-0.6l0.2,2.8l-22.9,4.8L273.5,171.2z
				 M291.1,144.2c2.7-0.5,5.2-4.5,3.9-11.4c-1.2-6.3-4.8-9.8-10.5-8.7l-1.4,0.3l-0.9,1.2l3.7,19.6L291.1,144.2z"/>
			<path class="st2" d="M334.2,163.4c3,0.1,4.9-1.2,5.4-3.9l6.3-35.3c0.7-3.7,0.4-4.5-4.3-6.5l0.4-2.5l33.9,6
				c3.1,0.6,6.2,0.8,6.2,0.8l-4.9,13.6l-3.2-0.6c1.8-7.8-0.5-9.5-6.6-10.6l-7.6-1.3l-1.2,0.8l-3,17l12,2.1l1.4-4.3l3.5,0.2
				l-2.7,15.3l-4.2-0.7l1-5.8l-10.8-1.9l-1.2,0.8l-2.5,13.9c-0.4,2.3-1.1,4.2-1.1,4.2l9.9,1.8c6.6,1.2,7.6,0.6,12.9-6.7l3.2,0.6
				l-5.2,12.8l-24.1-4.3c-5.7-1-13.9-2.2-13.9-2.2L334.2,163.4z"/>
			<path class="st2" d="M396.3,165l2.9,1.6c-5.1,9.3-0.3,14.7,3.6,16.8c3.3,1.8,7.7,1.9,9.6-1.6c5.4-9.9-15.7-20.9-7.6-35.8
				c4.2-7.6,12.9-10.5,23.9-4.5c3.5,1.9,7.5,4.8,12,8.3l-8.7,10.4l-2.9-1.6c2.7-5.3,3.2-10.1-2.9-13.4c-4.6-2.5-8.2-1.3-9.7,1.5
				c-5.5,10.1,16.1,20.2,7.6,35.7c-5,9.1-14.6,9.8-23.6,4.9c-6.3-3.4-13.6-9.8-11.2-15C389.7,171.5,390.9,169.8,396.3,165z"/>
			<path class="st2" d="M441.4,193.8l2.3,2.4c-7.6,7.3-4.8,13.9-1.6,17.1c2.6,2.7,6.8,4.2,9.7,1.4c8.2-7.8-8.7-24.7,3.6-36.4
				c6.3-6,15.5-6.1,24.1,3c2.8,2.9,5.7,6.9,9,11.5l-11.5,7.3l-2.3-2.4c4.2-4.2,6.1-8.6,1.3-13.7c-3.6-3.8-7.4-3.7-9.7-1.5
				c-8.3,7.9,9.2,24.1-3.5,36.3c-7.5,7.2-16.9,4.9-24-2.5c-4.9-5.2-10-13.5-6.1-17.7C433.2,198,434.8,196.7,441.4,193.8z"/>
			<path class="st2" d="M521.3,246.8c7.6,18.5-1.8,30.5-12.6,34.9c-12.2,5-30.2,1.8-38.1-17.1c-7.3-17.7,1.8-30.6,13.5-35.4
				C496.5,224.1,513.5,227.7,521.3,246.8z M475.5,264.9c3.8,9.1,15.2,9.3,25.9,4.8c10.4-4.3,19.3-13.1,15.2-23.1
				c-4-9.6-15.1-9.9-25.1-5.8C480.5,245.4,471.5,255.3,475.5,264.9z"/>
		</g>
		<g>
			<path class="st2" d="M167.7,462.1c2.5,1.7,4.9,1.3,6.8-0.8l23.5-26.7c2.5-2.8,3-3.4,0.2-7.4l1.7-1.9l3.8,3.3
				c8.5,7.5,11,9.3,11,9.3l0.1,0.5c0,0-4.3,1-8.5,5.8l-8.6,9.7l16.6,14.6l1.4-0.1l9.1-10.3c2.5-2.8,3-3.4-0.1-7.6l1.7-1.9l4.1,3.6
				c8.5,7.5,11,9.2,11,9.2l0.1,0.5c0,0-4.3,1-8.6,5.9l-22.4,25.4c-1.5,1.7-3.1,2.9-3.1,2.9l4,4.5l-2.1,1.9l-17.4-14.7l2.1-2.3
				c2.5,1.7,5.2,1.7,6.9-0.3l10.7-12.2l-16.5-14.6l-1.5,0l-9.9,11.2c-1.5,1.7-3.1,2.9-3.1,2.9l4.3,4.7l-2.1,1.9l-17.4-14.7
				L167.7,462.1z"/>
			<path class="st2" d="M279,475.4c19.1,6.1,22.2,21,18.6,32.2c-4,12.6-18.1,24.3-37.6,18.1c-18.3-5.8-22.2-21.1-18.4-33.1
				C245.7,479.8,259.4,469.2,279,475.4z M263.4,522.2c9.4,3,16.9-5.7,20.4-16.7c3.4-10.7,2.4-23.2-7.9-26.5
				c-9.9-3.2-17.3,5.2-20.6,15.4C251.7,505.7,253.5,519,263.4,522.2z"/>
			<path class="st2" d="M317.3,492.9c-0.3-3.7-0.4-4.5-5.2-5.2l-0.2-2.6l5-0.4c11.4-1,14.3-1.5,14.3-1.5l0.4,0.3
				c0,0-2.3,3.4-1.7,10.2l2,23c0.9,10.1,8.2,13.9,14.9,13.3c6.7-0.6,12.6-6,11.8-15l-2.1-24.9c-0.3-3.4-0.5-5.2-6.1-5.3l-0.2-2.8
				l16.2-1.4l0.5,1.7c0,0-5.4,2.6-4.8,9l2,23.1c1.1,12.9-7.6,20.1-19.8,21.1c-10.6,0.9-23.6-3-24.8-17L317.3,492.9z"/>
			<path class="st2" d="M392.3,507.3l3-1.4c4.4,9.6,11.6,9,15.7,7.1c3.4-1.6,6.1-5,4.4-8.7c-4.7-10.3-26.2,0.2-33.3-15.3
				c-3.6-7.9-0.7-16.6,10.6-21.8c3.7-1.7,8.4-3.2,13.8-4.7l3.2,13.2l-3,1.4c-2.6-5.4-6.2-8.6-12.5-5.7c-4.7,2.2-6,5.8-4.6,8.7
				c4.8,10.4,25.8-0.9,33.2,15.1c4.4,9.4-0.9,17.6-10.2,21.9c-6.5,3-16,5-18.7,0C393.6,516.5,393,514.5,392.3,507.3z"/>
			<path class="st2" d="M451.9,490.2c1.9-2.3,2-4.6,0.1-6.6l-24.5-26.2c-2.5-2.7-3.4-3-7.8-0.5l-1.7-1.9l25.2-23.5
				c2.3-2.2,4.3-4.5,4.3-4.5l7.9,12l-2.4,2.2c-5.2-6.1-7.9-5.3-12.4-1l-5.6,5.2l-0.1,1.5l11.8,12.7l8.9-8.3l-2.6-3.7l2.2-2.7
				l10.6,11.4l-3.1,2.9l-4-4.3l-8,7.5l-0.1,1.5l9.6,10.3c1.6,1.7,2.7,3.4,2.7,3.4l7.3-6.8c4.9-4.6,5.1-5.7,2.4-14.3l2.4-2.2
				l7.1,11.8l-17.9,16.7c-4.3,4-10.2,9.8-10.2,9.8L451.9,490.2z"/>
		</g>
		<path class="st2" d="M485.5,438.4c0.1,0.3,0.2,0.6,0.4,0.7c0.2,0.2,0.4,0.2,0.7,0.2c0.2,0,0.4-0.1,0.5-0.3
			c0.1-0.1,0.1-0.3,0.1-0.5c0-0.2-0.1-0.3-0.2-0.4c-0.1-0.1-0.3-0.1-0.4-0.1c-0.2,0-0.3,0.1-0.4,0.2c-0.1,0.1-0.1,0.2-0.1,0.4
			c-0.2-0.3-0.2-0.6,0-0.9l1.4-2.1c0.1-0.1,0.1-0.2-0.1-0.3l-4.6-3.1c0.9-2.1,2.1-4.2,3.5-6.4c5.2-7.7,12-12.4,15.8-11.2
			c-0.2-0.3-0.5-0.6-0.8-0.8c-3.6-2.5-11.2,2.4-16.9,10.8c-1.5,2.2-2.6,4.3-3.5,6.4l-0.5-0.3c-0.2-0.1-0.4-0.3-0.7-0.5
			c-0.3-0.2-0.5-0.4-0.7-0.7c-0.2-0.2-0.3-0.5-0.4-0.8c-0.1-0.3,0-0.6,0.2-0.9l-0.2-0.2c-0.2,0.3-0.4,0.5-0.7,0.6
			c-0.2,0.1-0.5,0.1-0.8,0c-0.3-0.1-0.5-0.2-0.8-0.4c-0.3-0.2-0.6-0.4-0.9-0.5l-0.5-0.4c1.6-1.6,3.2-3.5,4.6-5.6
			c5.7-8.4,7.4-17.2,3.8-19.7c-0.3-0.2-0.7-0.4-1-0.5c2.5,3.2,0.6,11.2-4.6,18.9c-1.5,2.1-3,4-4.6,5.6l-4.6-3.1
			c-0.1-0.1-0.2-0.1-0.3,0.1l-1.4,2.1c-0.2,0.3-0.5,0.4-0.7,0.4c0.1-0.1,0.2-0.2,0.3-0.3c0.1-0.1,0.1-0.3,0.1-0.4
			c0-0.2-0.1-0.3-0.3-0.4c-0.1-0.1-0.3-0.1-0.4-0.1c-0.2,0-0.3,0.1-0.4,0.3c-0.1,0.2-0.2,0.4-0.1,0.6c0.1,0.2,0.2,0.4,0.4,0.5
			c0.2,0.2,0.5,0.2,0.8,0.1c0.3-0.1,0.5-0.3,0.7-0.5l0.6-0.9l6.8,4.6c0.2,0.1,0.4,0.3,0.7,0.5c0.3,0.2,0.6,0.3,0.9,0.4
			c0.3,0.1,0.6,0.2,0.8,0.1c0.3,0,0.5-0.1,0.7-0.3c-0.1,0.3-0.2,0.5-0.1,0.8c0.1,0.3,0.2,0.5,0.4,0.7c0.2,0.2,0.4,0.4,0.7,0.6
			c0.3,0.2,0.5,0.4,0.7,0.5l6.7,4.5l-0.6,0.9C485.5,437.8,485.4,438.1,485.5,438.4z M498,399.8c0.7,0.5,1.7,0.3,2.2-0.4
			c0.5-0.7,0.3-1.7-0.4-2.2c-0.7-0.5-1.7-0.3-2.2,0.4C497.1,398.3,497.3,399.3,498,399.8z M479.9,410.3c-0.3-1.8-1-2.4-2.5-3.1
			c0.7,1.4,0.9,1.8,1,2.7c0.4,2.3,0.1,3.7-1,6.7C479.4,414,480.3,412.5,479.9,410.3z M501,395.5c0.6,0.4,1.4,0.2,1.8-0.3
			c0.4-0.6,0.2-1.4-0.3-1.8c-0.6-0.4-1.4-0.2-1.7,0.3C500.3,394.3,500.4,395.1,501,395.5z M490.4,411.4l4.4-6.5
			c0.9,0.4,1.9,0.2,2.5-0.6c0.6-0.9,0.4-2.1-0.5-2.7c-0.9-0.6-2.1-0.4-2.7,0.5c-0.5,0.8-0.4,1.8,0.2,2.4l-4.4,6.5
			c0.2-0.9,0.2-1.9-0.1-3.3c-0.3-1.6-0.7-2.3-1.8-2.1c-0.3,0.1-0.5,0.3-0.9,0.7c1,1,1.6,1.5,1.7,3.1c0.2,3.4-3.3,8.7-3.3,8.7
			c4.4-5.6,5.4-6,6.8-6.3c1.5-0.3,2.2-0.1,3.5,0.4c0.3-0.5,0.4-0.8,0.3-1.1c-0.2-1.1-1-1.2-2.6-0.9
			C492.1,410.5,491.2,410.9,490.4,411.4z M494.7,421.2c-2.4,0.4-3.7,1.7-5.6,4.6c2.3-1.9,4.4-3.1,6.6-3.5c0.5-0.1,1.3-0.1,2.4,0
			C497,421.3,496.3,420.9,494.7,421.2z"/>
		<path class="st2" d="M165.8,437.5l-0.6-0.9l6.6-4.5c0.2-0.1,0.4-0.3,0.7-0.5c0.3-0.2,0.5-0.4,0.7-0.6c0.2-0.2,0.4-0.5,0.4-0.7
			c0.1-0.3,0.1-0.5-0.1-0.8c0.2,0.2,0.4,0.3,0.7,0.3c0.3,0,0.5,0,0.8-0.1c0.3-0.1,0.6-0.2,0.9-0.4c0.3-0.2,0.5-0.3,0.7-0.5l6.8-4.6
			l0.6,0.9c0.2,0.3,0.4,0.4,0.7,0.5c0.3,0.1,0.6,0,0.8-0.1c0.2-0.2,0.4-0.3,0.4-0.5c0.1-0.2,0-0.4-0.1-0.6c-0.1-0.1-0.2-0.2-0.4-0.3
			c-0.2,0-0.3,0-0.4,0.1c-0.1,0.1-0.2,0.2-0.3,0.4c0,0.2,0,0.3,0.1,0.4c0.1,0.1,0.2,0.2,0.3,0.3c-0.3,0-0.5-0.1-0.7-0.4l-1.4-2.1
			c-0.1-0.1-0.2-0.1-0.3-0.1l-4.6,3.1c-1.6-1.6-3.2-3.5-4.6-5.6c-5.2-7.7-7.1-15.7-4.6-18.9c-0.4,0.1-0.7,0.2-1,0.5
			c-3.6,2.4-1.9,11.3,3.8,19.7c1.5,2.2,3,4,4.6,5.6l-0.5,0.4c-0.3,0.2-0.6,0.4-0.9,0.5c-0.3,0.2-0.6,0.3-0.8,0.4
			c-0.3,0.1-0.5,0.1-0.8,0c-0.2-0.1-0.5-0.3-0.7-0.6l-0.2,0.2c0.2,0.3,0.3,0.6,0.2,0.9c-0.1,0.3-0.2,0.5-0.4,0.8
			c-0.2,0.2-0.4,0.5-0.7,0.7c-0.3,0.2-0.5,0.4-0.7,0.5l-0.5,0.3c-0.9-2.1-2.1-4.2-3.5-6.4c-5.7-8.4-13.3-13.2-16.9-10.8
			c-0.3,0.2-0.6,0.5-0.8,0.8c3.9-1.1,10.6,3.6,15.8,11.2c1.5,2.1,2.6,4.3,3.5,6.4l-4.6,3.1c-0.1,0.1-0.2,0.2-0.1,0.3l1.4,2.1
			c0.2,0.3,0.2,0.6,0,0.9c0-0.1-0.1-0.3-0.1-0.4c-0.1-0.1-0.2-0.2-0.4-0.2c-0.2,0-0.3,0-0.4,0.1c-0.1,0.1-0.2,0.2-0.2,0.4
			c0,0.2,0,0.3,0.1,0.5c0.1,0.2,0.3,0.3,0.5,0.3c0.2,0,0.4,0,0.7-0.2c0.2-0.2,0.4-0.4,0.4-0.7C166,438.1,166,437.8,165.8,437.5z
			 M153.8,397.6c-0.5-0.7-1.5-0.9-2.2-0.4c-0.7,0.5-0.9,1.5-0.4,2.2c0.5,0.7,1.5,0.9,2.2,0.4C154.1,399.3,154.3,398.3,153.8,397.6z
			 M174,416.6c-1.1-3-1.4-4.4-1-6.7c0.2-0.9,0.3-1.4,1-2.7c-1.5,0.8-2.2,1.3-2.5,3.1C171.2,412.5,172,414,174,416.6z M150.8,393.7
			c-0.4-0.6-1.2-0.7-1.7-0.3c-0.6,0.4-0.7,1.2-0.3,1.8c0.4,0.6,1.2,0.7,1.8,0.3C151,395.1,151.2,394.3,150.8,393.7z M157.9,410.2
			c-1.6-0.3-2.4-0.2-2.6,0.9c-0.1,0.3,0.1,0.6,0.3,1.1c1.3-0.5,2-0.7,3.5-0.4c1.4,0.3,2.4,0.7,6.8,6.3c0,0-3.5-5.3-3.3-8.7
			c0.1-1.5,0.7-2.1,1.7-3.1c-0.4-0.5-0.6-0.7-0.9-0.7c-1.1-0.2-1.5,0.5-1.8,2.1c-0.3,1.4-0.3,2.4-0.1,3.3l-4.4-6.5
			c0.6-0.7,0.8-1.7,0.2-2.4c-0.6-0.9-1.8-1.1-2.7-0.5c-0.9,0.6-1.1,1.8-0.5,2.7c0.6,0.8,1.6,1.1,2.5,0.6l4.4,6.5
			C160.3,410.9,159.3,410.5,157.9,410.2z M153.3,422.2c1.2,0,1.9-0.1,2.4,0c2.3,0.4,4.3,1.6,6.6,3.5c-1.9-2.8-3.2-4.2-5.6-4.6
			C155.1,420.9,154.4,421.3,153.3,422.2z"/>
		<g>
			<path class="st8" d="M114.4,362.6v-25.5h11.7v3.8h-7.3v6.6h5.6v3.8h-5.6v7.5h7.8v3.8L114.4,362.6L114.4,362.6z"/>
			<path class="st8" d="M138,343.4c-0.2-2.2-1.3-2.8-2.3-2.8c-1.4,0-2.2,0.9-2.2,2.5c0,4.3,8.9,6.4,8.9,13.3c0,4.2-2.8,6.5-6.9,6.5
				c-4.1,0-6.4-3.2-6.6-7.1l4.2-0.6c0.2,2.6,1.2,3.8,2.6,3.8c1.5,0,2.5-0.8,2.5-2.3c0-5-8.9-6.4-8.9-13.7c0-4.1,2.5-6.4,6.8-6.4
				c3.6,0,5.7,2.6,6.1,6.2L138,343.4z"/>
			<path class="st8" d="M148.3,340.9H144v-3.8h12.8v3.8h-4.2v21.7h-4.4V340.9z"/>
			<path class="st8" d="M159.4,337.1h6.5c4.5,0,6.9,2.5,6.9,7.7v10.1c0,5.2-2.4,7.7-6.9,7.7h-6.5
				C159.4,362.6,159.4,337.1,159.4,337.1z M163.8,359h1.5c2.3,0,3.1-0.9,3.1-3.6v-11.1c0-2.7-0.8-3.6-3.1-3.6h-1.5V359z"/>
		</g>
		<g>
			<path class="st8" d="M482.4,341.9H479v-2.4c1.9-1,3.7-2,5.2-3.3h2.2v25.8h-4L482.4,341.9L482.4,341.9z"/>
			<path class="st8" d="M495.6,355.2v1.3c0,1.7,0.6,2.4,1.9,2.4c1.3,0,2-0.8,2-2.4v-6c-1.1,1.1-1.8,1.7-3.6,1.7
				c-2.5,0-4.7-1.5-4.7-5.2v-3c0-5.4,1.8-7.8,6.2-7.8c4.4,0,6.2,2.2,6.2,7v12.2c0,4.8-1.8,7-6.2,7c-3.5,0.1-5.7-2.4-5.7-5.6v-1.6
				L495.6,355.2L495.6,355.2z M499.5,342.1c0-1.7-0.7-2.4-2-2.4c-1.3,0-2,0.8-2,2.4v4.2c0,1.7,0.7,2.4,1.8,2.4
				c0.8,0,1.7-0.7,2.3-1.2L499.5,342.1L499.5,342.1z"/>
			<path class="st8" d="M511.3,355.2v1.3c0,1.7,0.6,2.4,1.9,2.4s2-0.8,2-2.4v-6c-1.1,1.1-1.8,1.7-3.6,1.7c-2.5,0-4.7-1.5-4.7-5.2v-3
				c0-5.4,1.8-7.8,6.2-7.8c4.4,0,6.2,2.2,6.2,7v12.2c0,4.8-1.8,7-6.2,7c-3.5,0.1-5.7-2.4-5.7-5.6v-1.6L511.3,355.2L511.3,355.2z
				 M515.2,342.1c0-1.7-0.7-2.4-2-2.4c-1.3,0-2,0.8-2,2.4v4.2c0,1.7,0.7,2.4,1.8,2.4c0.8,0,1.7-0.7,2.3-1.2L515.2,342.1L515.2,342.1
				z"/>
			<path class="st8" d="M530.7,343.4v-1.3c0-1.7-0.6-2.4-1.9-2.4c-1.3,0-2,0.8-2,2.4v6c1.1-1.1,1.8-1.7,3.6-1.7
				c2.5,0,4.7,1.5,4.7,5.2v3c0,5.4-1.8,7.8-6.2,7.8c-4.4,0-6.2-2.2-6.2-7v-12.2c0-4.8,1.8-7,6.2-7c3.5-0.1,5.7,2.4,5.7,5.6v1.6
				L530.7,343.4L530.7,343.4z M526.7,356.5c0,1.7,0.7,2.4,2,2.4c1.3,0,2-0.8,2-2.4v-4.2c0-1.7-0.7-2.4-1.8-2.4
				c-0.8,0-1.7,0.7-2.3,1.2L526.7,356.5L526.7,356.5z"/>
		</g>
	</g>
</g>
<g id="Layer_3">
</g>
</svg>
